<?xml version="1.0" encoding="UTF-8" standalone="no" ?>
<!DOCTYPE svg PUBLIC "-//W3C//DTD SVG 1.1//EN" "http://www.w3.org/Graphics/SVG/1.1/DTD/svg11.dtd">
<svg xmlns="http://www.w3.org/2000/svg" xmlns:xlink="http://www.w3.org/1999/xlink" version="1.1" width="350" height="350" viewBox="0 0 350 350" xml:space="preserve">
<desc>Created with Fabric.js 1.7.22</desc>
<defs>
</defs>
<g id="icon" style="stroke: #037FFF; stroke-width: 1.5; stroke-dasharray: none; stroke-linecap: butt; stroke-linejoin: miter; stroke-miterlimit: 10; fill: none; fill-rule: nonzero; opacity: 1;" transform="translate(-1.9444444444444287 -1.9444444444444287) scale(3.89 3.89)" >
	<path d="M 43.269 90 c -2.607 0 -5.178 -0.955 -7.673 -1.883 c -2.728 -1.013 -5.549 -2.056 -8.333 -1.814 l -6.99 0.62 V 59.965 l 3.828 -0.34 c 2.372 -0.208 4.333 0.707 6.235 1.593 c 1.769 0.825 3.448 1.602 5.349 1.446 l 12.375 -2.246 c 4.434 -0.763 6.903 1.776 8.403 4.123 l 13.461 -6.257 c 5.137 -2.308 10.902 0 14.359 5.739 c 0.924 1.532 0.411 3.568 -1.143 4.538 c -1.757 1.096 -3.506 2.192 -5.238 3.277 c -15.1 9.462 -28.141 17.633 -33.737 18.122 C 43.866 89.987 43.567 90 43.269 90 z M 28.121 84.266 c 2.851 0 5.551 1.003 8.172 1.978 c 2.691 1 5.233 1.945 7.698 1.726 c 5.118 -0.447 18.589 -8.888 32.851 -17.825 c 1.732 -1.085 3.483 -2.183 5.241 -3.279 c 0.633 -0.395 0.852 -1.206 0.488 -1.81 c -2.911 -4.83 -7.659 -6.818 -11.814 -4.951 L 55.66 67.12 l -0.456 -0.796 c -1.318 -2.298 -3.152 -4.559 -6.798 -3.937 l -12.462 2.258 c -2.533 0.205 -4.526 -0.717 -6.454 -1.615 c -1.739 -0.811 -3.379 -1.574 -5.214 -1.413 l -2.004 0.178 v 22.942 l 4.813 -0.427 C 27.433 84.279 27.778 84.266 28.121 84.266 z" style="stroke: #037FFF; stroke-width: 1.5; stroke-dasharray: none; stroke-linecap: butt; stroke-linejoin: miter; stroke-miterlimit: 10; fill: #037FFF; fill-rule: nonzero; opacity: 1;" transform=" matrix(1 0 0 1 0 0) " stroke-linecap="round" />
	<path d="M 39.796 76.998 c -0.467 0 -0.885 -0.328 -0.979 -0.804 c -0.108 -0.542 0.243 -1.068 0.784 -1.177 c 4.868 -0.974 10.34 -3.193 16.702 -6.779 l -1.099 -1.914 c -0.275 -0.479 -0.109 -1.091 0.369 -1.365 c 0.479 -0.274 1.091 -0.11 1.365 0.369 l 1.598 2.784 c 0.274 0.479 0.11 1.09 -0.368 1.364 c -6.926 3.987 -12.871 6.441 -18.175 7.502 C 39.927 76.992 39.861 76.998 39.796 76.998 z" style="stroke: #037FFF; stroke-width: 1.5; stroke-dasharray: none; stroke-linecap: butt; stroke-linejoin: miter; stroke-miterlimit: 10; fill: #037FFF; fill-rule: nonzero; opacity: 1;" transform=" matrix(1 0 0 1 0 0) " stroke-linecap="round" />
	<path d="M 19.053 90 H 8.474 c -1.775 0 -3.219 -1.444 -3.219 -3.219 V 58.344 c 0 -1.774 1.444 -3.219 3.219 -3.219 h 10.579 c 1.775 0 3.219 1.444 3.219 3.219 v 28.438 C 22.272 88.556 20.828 90 19.053 90 z M 8.474 57.125 c -0.672 0 -1.219 0.547 -1.219 1.219 v 28.438 C 7.255 87.453 7.802 88 8.474 88 h 10.579 c 0.672 0 1.219 -0.547 1.219 -1.219 V 58.344 c 0 -0.672 -0.547 -1.219 -1.219 -1.219 H 8.474 z" style="stroke: #037FFF; stroke-width: 1.5; stroke-dasharray: none; stroke-linecap: butt; stroke-linejoin: miter; stroke-miterlimit: 10; fill: #037FFF; fill-rule: nonzero; opacity: 1;" transform=" matrix(1 0 0 1 0 0) " stroke-linecap="round" />
	<path d="M 45 25.721 c -5.757 0 -10.441 -4.684 -10.441 -10.441 v -4.839 C 34.559 4.684 39.243 0 45 0 c 5.758 0 10.441 4.684 10.441 10.441 v 4.839 C 55.441 21.037 50.758 25.721 45 25.721 z M 45 2 c -4.654 0 -8.441 3.787 -8.441 8.441 v 4.839 c 0 4.654 3.787 8.441 8.441 8.441 s 8.441 -3.787 8.441 -8.441 v -4.839 C 53.441 5.787 49.654 2 45 2 z" style="stroke: #037FFF; stroke-width: 1.5; stroke-dasharray: none; stroke-linecap: butt; stroke-linejoin: miter; stroke-miterlimit: 10; fill: #037FFF; fill-rule: nonzero; opacity: 1;" transform=" matrix(1 0 0 1 0 0) " stroke-linecap="round" />
	<path d="M 35.893 57.418 c -0.552 0 -1 -0.447 -1 -1 V 40.675 c 0 -0.552 0.448 -1 1 -1 s 1 0.448 1 1 v 15.743 C 36.893 56.971 36.445 57.418 35.893 57.418 z" style="stroke: #037FFF; stroke-width: 1.5; stroke-dasharray: none; stroke-linecap: butt; stroke-linejoin: miter; stroke-miterlimit: 10; fill: #037FFF; fill-rule: nonzero; opacity: 1;" transform=" matrix(1 0 0 1 0 0) " stroke-linecap="round" />
	<path d="M 54.107 57.418 c -0.553 0 -1 -0.447 -1 -1 V 40.675 c 0 -0.552 0.447 -1 1 -1 s 1 0.448 1 1 v 15.743 C 55.107 56.971 54.66 57.418 54.107 57.418 z" style="stroke: #037FFF; stroke-width: 1.5; stroke-dasharray: none; stroke-linecap: butt; stroke-linejoin: miter; stroke-miterlimit: 10; fill: #037FFF; fill-rule: nonzero; opacity: 1;" transform=" matrix(1 0 0 1 0 0) " stroke-linecap="round" />
	<path d="M 64.123 55.825 c -0.553 0 -1 -0.447 -1 -1 V 37.719 c 0 -4.519 -3.676 -8.195 -8.194 -8.195 h -1.612 c -1.548 1.684 -4.727 2.749 -8.316 2.749 c -3.589 0 -6.768 -1.065 -8.316 -2.749 h -1.612 c -4.519 0 -8.195 3.676 -8.195 8.195 v 15.522 c 0 0.553 -0.448 1 -1 1 s -1 -0.447 -1 -1 V 37.719 c 0 -5.622 4.573 -10.195 10.195 -10.195 h 2.084 c 0.322 0 0.624 0.155 0.812 0.416 c 0.808 1.124 3.353 2.333 7.033 2.333 c 3.681 0 6.226 -1.209 7.032 -2.332 c 0.188 -0.262 0.49 -0.417 0.813 -0.417 h 2.084 c 5.621 0 10.194 4.573 10.194 10.195 v 17.106 C 65.123 55.378 64.676 55.825 64.123 55.825 z" style="stroke: #037FFF; stroke-width: 1.5; stroke-dasharray: none; stroke-linecap: butt; stroke-linejoin: miter; stroke-miterlimit: 10; fill: #037FFF; fill-rule: nonzero; opacity: 1;" transform=" matrix(1 0 0 1 0 0) " stroke-linecap="round" />
</g>
</svg>